<svg xmlns="http://www.w3.org/2000/svg" xmlns:xlink="http://www.w3.org/1999/xlink" width="350" zoomAndPan="magnify" viewBox="0 0 262.5 187.499995" height="250" preserveAspectRatio="xMidYMid meet" version="1.0"><defs><filter x="0%" y="0%" width="100%" height="100%" id="6bcf44c813"><feColorMatrix values="0 0 0 0 1 0 0 0 0 1 0 0 0 0 1 0 0 0 1 0" color-interpolation-filters="sRGB"/></filter><g/><clipPath id="ef4dcb422a"><path d="M 59 31 L 261 31 L 261 186.628906 L 59 186.628906 Z M 59 31 " clip-rule="nonzero"/></clipPath><clipPath id="3ab3856f61"><path d="M 13 41 L 95 41 L 95 134.976562 L 13 134.976562 Z M 13 41 " clip-rule="nonzero"/></clipPath><clipPath id="55fd661b9c"><path d="M 41 5.570312 L 60 5.570312 L 60 25 L 41 25 Z M 41 5.570312 " clip-rule="nonzero"/></clipPath><mask id="cd7347642d"><g filter="url(#6bcf44c813)"><rect x="-26.25" width="315" fill="#000000" y="-18.749999" height="224.999994" fill-opacity="0.65"/></g></mask><clipPath id="b495e6929e"><path d="M 15.117188 40.058594 L 33.609375 40.058594 L 33.609375 49.132812 L 15.117188 49.132812 Z M 15.117188 40.058594 " clip-rule="nonzero"/></clipPath><clipPath id="1ff80a9da8"><path d="M 15.253906 28.414062 L 33.554688 28.414062 L 33.554688 53.382812 L 15.253906 53.382812 Z M 15.253906 28.414062 " clip-rule="nonzero"/></clipPath><clipPath id="48ce884a13"><rect x="0" width="35" y="0" height="54"/></clipPath></defs><g clip-path="url(#ef4dcb422a)"><path fill="#f2e0d0" d="M 176.425781 186.945312 C 169.835938 186.285156 164.035156 185.699219 158.234375 185.117188 C 156.300781 184.917969 154.367188 184.5625 152.429688 184.535156 C 137.90625 184.332031 124.300781 180.109375 110.90625 175.054688 C 100.386719 171.082031 91.542969 164.667969 84.097656 156.214844 C 76.738281 147.859375 70.679688 138.636719 66.132812 128.546875 C 60.292969 115.582031 57.496094 102.050781 60.871094 87.796875 C 62.078125 82.691406 63.8125 77.804688 66.964844 73.585938 C 68.695312 71.273438 70.542969 68.753906 72.921875 67.261719 C 86.585938 58.691406 100.960938 53.734375 117.222656 59.535156 C 121.796875 61.164062 126.472656 62.59375 131.199219 63.679688 C 139.199219 65.511719 147.21875 65.578125 155.277344 63.511719 C 160.507812 62.164062 164.789062 59.777344 168.191406 55.476562 C 173.890625 48.28125 180.863281 42.46875 188.808594 37.871094 C 197.164062 33.042969 206.078125 30.324219 215.8125 31.585938 C 226.957031 33.03125 237.164062 36.945312 246.058594 43.957031 C 253.375 49.726562 256.554688 57.8125 258.402344 66.539062 C 261.871094 82.945312 259.71875 98.945312 253.445312 114.238281 C 244.859375 135.179688 231.976562 153.464844 216.695312 170.066406 C 209.964844 177.382812 201.804688 182.714844 192.054688 184.960938 C 186.742188 186.183594 181.1875 186.375 176.425781 186.945312 " fill-opacity="1" fill-rule="nonzero"/></g><path fill="#f2e0d0" d="M 93.289062 53.75 C 89.4375 44.882812 81.078125 38.558594 72.78125 34.070312 C 68.339844 31.679688 63.132812 29.816406 58.015625 30.5625 C 53.761719 31.199219 49.675781 33.699219 47.523438 37.457031 C 46.882812 38.574219 46.476562 39.742188 46.289062 40.953125 C 46.152344 41.058594 46.042969 41.214844 45.980469 41.417969 C 45.683594 42.628906 45.386719 43.824219 45.074219 45.035156 C 44.296875 46.605469 43.515625 48.144531 42.703125 49.695312 C 42.332031 50.300781 41.925781 50.921875 41.519531 51.511719 C 38.527344 54.339844 34.984375 56.574219 31.179688 57.988281 C 23.570312 60.816406 14.449219 61.6875 8.710938 68.023438 C 5.296875 71.8125 4.003906 77.171875 3.410156 82.09375 C 2.769531 87.328125 3.207031 92.730469 5.15625 97.671875 C 8.820312 106.804688 16.757812 113.949219 25.179688 118.699219 C 33.847656 123.59375 44.046875 126.03125 53.992188 124.960938 C 63.425781 123.933594 72.519531 119.789062 79.269531 113.125 C 86.644531 105.839844 89.949219 95.933594 92.210938 86.070312 C 94.597656 75.695312 97.730469 63.984375 93.289062 53.75 Z M 93.289062 53.75 " fill-opacity="1" fill-rule="nonzero"/><g clip-path="url(#3ab3856f61)"><path fill="#ad8d6f" d="M 93.601562 88.199219 C 92.539062 85.074219 90.371094 82.21875 87.910156 80.058594 C 93.242188 76.550781 95.703125 70.507812 94.582031 64.433594 C 93.351562 57.863281 88.1875 50.175781 92.382812 44.152344 C 92.507812 43.933594 93.648438 42.707031 92.273438 43.125 C 90.902344 43.730469 89.34375 44.121094 87.816406 44.152344 C 85.414062 44.398438 82.917969 44.121094 80.515625 43.667969 C 74.1875 42.488281 67.871094 40.734375 61.617188 42.925781 C 56.800781 44.617188 53.011719 48.871094 53.402344 53.78125 C 50.65625 52.492188 47.414062 52.941406 44.527344 53.6875 C 39.132812 55.085938 34.300781 57.539062 31.882812 62.445312 C 29.964844 66.328125 29.824219 70.863281 31.695312 74.808594 C 27.46875 74.015625 23.058594 75.429688 19.71875 78.023438 C 11.972656 84.082031 12.34375 94.84375 16.460938 102.75 C 19.65625 108.882812 25.039062 113.871094 31.492188 116.929688 C 32.304688 117.363281 33.128906 117.769531 33.957031 118.15625 C 32.210938 119.820312 30.980469 122.273438 29.996094 124.429688 C 29.109375 126.355469 28.171875 128.5 28.5 130.660156 C 28.65625 131.746094 29.167969 132.847656 30.011719 133.578125 C 30.261719 133.90625 30.574219 134.167969 30.949219 134.339844 C 31.054688 134.386719 31.179688 134.386719 31.289062 134.355469 C 31.554688 134.496094 31.851562 134.605469 32.164062 134.667969 C 33.597656 134.976562 35.328125 134.402344 36.046875 133.160156 C 38.199219 130.984375 37.917969 124.695312 38.835938 120.75 C 42.175781 123.886719 46.136719 126.3125 50.53125 127.863281 C 58.125 130.550781 67.121094 130.691406 74.21875 126.839844 C 80.144531 123.625 84.121094 117.195312 83.183594 110.640625 C 83.089844 109.628906 82.902344 108.621094 82.574219 107.640625 C 82.527344 107.441406 82.464844 107.253906 82.386719 107.097656 C 82.339844 106.988281 82.292969 106.882812 82.25 106.773438 C 83.167969 106.492188 84.042969 106.089844 84.851562 105.578125 C 85.742188 105.171875 86.566406 104.660156 87.316406 104.039062 C 88.078125 103.511719 88.8125 102.9375 89.46875 102.300781 C 90.121094 101.679688 90.699219 100.996094 91.214844 100.28125 C 93.195312 97.949219 93.878906 95.933594 94.128906 92.328125 C 94.191406 90.914062 94.035156 89.515625 93.601562 88.199219 Z M 90.949219 84.96875 C 91.058594 85.121094 91.152344 85.277344 91.246094 85.433594 C 92.648438 88.523438 92.117188 92.25 90.402344 95.078125 C 88.3125 98.511719 84.476562 100.699219 80.625 102.082031 C 76.230469 103.652344 71.441406 104.472656 66.71875 104.769531 C 59.605469 105.21875 51.09375 104.257812 44.355469 107.285156 C 44.589844 106.957031 44.824219 106.632812 45.042969 106.289062 C 46.789062 103.667969 48.175781 100.871094 49.472656 98.042969 C 50.734375 95.28125 51.828125 92.4375 53.183594 89.734375 C 53.960938 88.167969 54.882812 86.582031 56.019531 85.183594 C 56.800781 84.59375 57.625 84.066406 58.484375 83.617188 C 60.605469 82.480469 62.929688 81.78125 65.328125 81.550781 C 68.121094 81.644531 70.894531 81.84375 73.671875 81.859375 C 75.683594 81.875 77.976562 81.921875 80.238281 81.765625 C 80.253906 81.765625 80.269531 81.78125 80.300781 81.78125 C 80.640625 81.78125 80.984375 81.75 81.328125 81.722656 C 81.546875 81.722656 81.765625 81.722656 82 81.722656 C 83.324219 81.765625 84.695312 81.875 85.992188 82.21875 C 87.832031 82.699219 89.609375 83.617188 90.949219 84.96875 Z M 58.5625 80.277344 C 58.578125 80.246094 58.59375 80.214844 58.609375 80.199219 C 59.917969 78.195312 61.261719 76.238281 62.617188 74.296875 C 63.378906 73.195312 64.160156 72.121094 64.957031 71.035156 C 69.335938 65.769531 74 60.800781 78.800781 56.03125 C 79.316406 55.628906 79.800781 55.179688 80.269531 54.710938 C 80.390625 54.617188 80.5 54.511719 80.609375 54.417969 C 80.066406 54.960938 79.535156 55.519531 79.019531 56.09375 C 74.902344 60.582031 71.488281 65.628906 67.777344 70.539062 C 66.8125 71.8125 65.828125 73.085938 64.800781 74.34375 C 64.207031 75.011719 63.613281 75.664062 62.992188 76.300781 C 61.851562 77.480469 60.652344 78.613281 59.359375 79.671875 C 59.09375 79.871094 58.828125 80.074219 58.5625 80.277344 Z M 91.417969 75.214844 C 90.792969 76.003906 90.089844 76.734375 89.3125 77.402344 C 87.957031 78.550781 86.347656 79.46875 84.617188 80.105469 C 84.167969 80.277344 83.699219 80.402344 83.230469 80.523438 C 86.535156 79.375 89.546875 77.324219 91.527344 74.902344 C 92.023438 74.296875 92.460938 73.644531 92.835938 72.960938 C 92.429688 73.738281 91.960938 74.484375 91.417969 75.214844 Z M 84.914062 50.890625 C 85.929688 50.238281 87.144531 49.433594 88.1875 50.054688 C 88.328125 50.222656 88.453125 50.410156 88.546875 50.613281 C 88.625 51.296875 88.78125 51.964844 88.90625 52.554688 C 89.25 53.996094 89.828125 55.394531 90.480469 56.777344 C 91.355469 58.609375 92.320312 60.414062 93.070312 62.292969 C 93.335938 63.191406 93.539062 64.109375 93.660156 65.023438 C 94.066406 67.976562 93.335938 70.832031 91.652344 73.304688 C 89.996094 75.726562 87.582031 77.589844 84.789062 78.832031 C 83.371094 79.46875 81.875 79.933594 80.347656 80.277344 C 79.019531 80.570312 77.601562 80.632812 76.292969 80.992188 C 75.605469 81.023438 74.917969 81.070312 74.21875 81.097656 C 74.203125 81.097656 74.1875 81.097656 74.1875 81.113281 C 74.0625 81.128906 73.953125 81.128906 73.84375 81.144531 C 73.546875 81.144531 73.25 81.144531 72.953125 81.144531 C 72.410156 81.128906 71.847656 81.113281 71.300781 81.085938 C 68.167969 80.960938 65.003906 80.570312 61.851562 80.695312 C 61.355469 80.710938 60.839844 80.757812 60.308594 80.820312 C 60.652344 80.449219 60.980469 80.089844 61.308594 79.75 C 62.476562 78.519531 63.597656 77.261719 64.660156 75.972656 C 66.15625 74.15625 67.527344 72.261719 68.792969 70.320312 C 70.617188 67.929688 72.363281 65.492188 74.15625 63.113281 C 77.226562 59 80.53125 55.054688 84.179688 51.480469 C 84.335938 51.359375 84.476562 51.234375 84.632812 51.109375 C 84.726562 51.03125 84.820312 50.96875 84.914062 50.890625 Z M 69.085938 42.753906 C 69.445312 42.769531 69.789062 42.800781 70.132812 42.832031 C 71.191406 42.941406 72.253906 43.078125 73.296875 43.25 C 73.65625 43.328125 74.015625 43.40625 74.359375 43.484375 C 75.089844 43.667969 75.839844 43.855469 76.574219 44.042969 C 77.960938 44.554688 79.488281 44.882812 80.859375 45.253906 C 80.875 45.253906 80.875 45.253906 80.890625 45.269531 C 81.8125 45.59375 82.792969 45.796875 83.714844 45.984375 C 83.746094 45.984375 83.777344 46 83.808594 46 C 83.902344 46.015625 83.980469 46.046875 84.074219 46.0625 C 84.351562 46.171875 84.617188 46.292969 84.882812 46.433594 C 85.398438 46.730469 85.601562 47.117188 85.617188 47.535156 C 85.445312 48.34375 84.804688 49.011719 84.226562 49.664062 C 83.699219 50.269531 83.152344 50.875 82.589844 51.480469 C 82.574219 51.496094 82.558594 51.511719 82.542969 51.527344 C 82.464844 51.605469 82.371094 51.667969 82.292969 51.746094 C 82.265625 51.777344 82.25 51.792969 82.25 51.824219 C 81.234375 52.800781 80.175781 53.765625 79.238281 54.804688 C 77.929688 56.0625 76.632812 57.351562 75.355469 58.640625 C 68.527344 65.570312 61.976562 72.992188 56.222656 81.101562 C 56.535156 80.152344 56.691406 79.113281 56.800781 78.210938 C 56.832031 77.992188 56.863281 77.777344 56.894531 77.574219 C 57.128906 75.867188 57.207031 74.15625 57.191406 72.449219 C 57.191406 72.433594 57.191406 72.417969 57.175781 72.417969 C 57.269531 69.265625 56.863281 66.097656 56.488281 62.992188 C 56.128906 60.007812 55.617188 56.917969 55.957031 53.953125 C 56.847656 47.707031 60.902344 45.472656 64.894531 43.667969 C 66.203125 43.078125 67.652344 42.863281 69.085938 42.753906 Z M 56.066406 47.832031 C 56.144531 47.707031 56.238281 47.566406 56.347656 47.445312 C 56.378906 47.414062 56.363281 47.382812 56.347656 47.367188 C 56.941406 46.636719 57.640625 45.953125 58.421875 45.378906 C 59.964844 44.230469 61.789062 43.484375 63.707031 43.03125 C 63.878906 43.015625 64.050781 42.988281 64.222656 42.957031 C 63.378906 43.25 62.554688 43.609375 61.789062 44.058594 C 59.09375 45.609375 57.050781 48.066406 56.113281 50.890625 C 55.007812 54.199219 55.476562 57.789062 55.878906 61.234375 C 56.113281 63.222656 56.363281 65.273438 56.535156 67.339844 C 56.488281 67.136719 56.457031 66.949219 56.410156 66.765625 C 56.050781 64.125 55.691406 61.5 55.351562 58.890625 C 55.179688 57.492188 54.960938 56.09375 54.757812 54.695312 C 54.726562 54.527344 54.710938 54.355469 54.679688 54.183594 C 54.679688 54.105469 54.679688 54.042969 54.679688 53.96875 C 54.679688 53.050781 54.757812 52.132812 54.929688 51.25 C 55.148438 50.070312 55.554688 48.917969 56.066406 47.832031 Z M 39.414062 56.328125 C 40.597656 55.769531 41.847656 55.300781 43.109375 54.914062 C 44.511719 54.496094 46.042969 54.074219 47.585938 53.875 C 49.972656 53.8125 52.058594 54.386719 53.246094 56.546875 C 54.132812 58.144531 54.710938 60.007812 55.179688 61.808594 C 55.632812 64.386719 55.988281 66.980469 56.175781 69.589844 C 56.207031 70.027344 56.222656 70.445312 56.253906 70.878906 C 56.222656 73.816406 55.679688 76.734375 54.789062 79.59375 C 54.210938 81.457031 53.480469 83.289062 52.714844 85.105469 C 52.074219 86.628906 51.234375 88.136719 50.625 89.6875 C 50.3125 90.199219 50.015625 90.714844 49.722656 91.242188 C 47.507812 95.0625 45.480469 99.054688 43.6875 103.183594 C 44.265625 99.191406 43.984375 95.140625 42.8125 91.320312 C 42.113281 89.003906 41.097656 86.785156 39.789062 84.75 C 39.664062 84.546875 39.523438 84.34375 39.382812 84.160156 C 38.898438 82.761719 38.058594 81.378906 37.527344 80.058594 C 36.824219 78.351562 36.203125 76.609375 35.640625 74.871094 C 35.265625 73.722656 34.953125 72.542969 34.707031 71.363281 C 34.675781 70.539062 34.457031 69.730469 34.394531 68.921875 C 34.316406 68.101562 34.285156 67.261719 34.316406 66.4375 C 34.347656 64.886719 34.597656 63.363281 35.0625 61.886719 C 35.953125 59.683594 37.417969 57.742188 39.414062 56.328125 Z M 31.304688 67.617188 C 31.570312 64.808594 32.710938 62.058594 34.597656 59.851562 C 35.609375 58.6875 36.824219 57.742188 38.152344 56.980469 C 35.21875 59.511719 33.582031 63.285156 33.347656 67.089844 C 33.144531 70.304688 33.832031 73.535156 34.921875 76.609375 C 34.769531 76.378906 34.628906 76.144531 34.472656 75.929688 C 34.238281 75.539062 34.003906 75.136719 33.785156 74.746094 C 32.507812 72.449219 31.554688 70.148438 31.304688 67.617188 Z M 18.378906 80.976562 C 18.925781 80.167969 19.625 79.34375 20.4375 78.597656 C 20.53125 78.519531 20.625 78.445312 20.71875 78.382812 C 21.683594 77.667969 22.714844 77.078125 23.820312 76.609375 C 23.820312 76.609375 23.835938 76.609375 23.835938 76.609375 C 28.15625 75.757812 32.226562 78.132812 35.171875 80.835938 C 36.34375 81.90625 37.371094 83.085938 38.277344 84.359375 C 38.402344 84.59375 38.542969 84.828125 38.679688 85.042969 C 39.851562 87.046875 40.910156 89.113281 41.597656 91.335938 C 41.785156 91.941406 41.941406 92.5625 42.082031 93.199219 C 42.46875 96.085938 42.46875 99.023438 42.128906 101.972656 C 41.816406 103.480469 41.425781 104.988281 41.003906 106.476562 C 40.644531 107.765625 40.195312 109.117188 39.585938 110.40625 C 39.117188 110.980469 38.601562 111.507812 38.042969 111.976562 C 35.734375 112.984375 32.972656 113.03125 30.558594 112.269531 C 28.703125 111.695312 27.019531 110.71875 25.488281 109.550781 C 24.226562 108.589844 23.152344 107.410156 21.933594 106.414062 C 18.769531 102.6875 16.664062 98.183594 15.929688 93.476562 C 15.292969 89.207031 15.867188 84.671875 18.378906 80.976562 Z M 33.457031 115.6875 C 32.304688 115.6875 31.179688 115.453125 30.121094 115.050781 C 29.589844 114.847656 29.09375 114.554688 28.59375 114.289062 C 27.453125 113.574219 26.347656 112.796875 25.304688 111.960938 C 18.363281 106.351562 13.53125 97.671875 14.636719 88.957031 C 14.871094 87.109375 15.402344 85.339844 16.242188 83.691406 C 13.265625 90.898438 15.835938 99.660156 20.546875 105.746094 C 23.167969 109.132812 26.738281 112.269531 30.824219 114.042969 C 33.238281 115.082031 35.859375 114.523438 37.949219 113.125 C 37.214844 114.054688 36.34375 114.847656 35.28125 115.4375 C 34.675781 115.59375 34.066406 115.6875 33.457031 115.6875 Z M 31.179688 126.125 C 31.507812 125.503906 31.867188 124.882812 32.242188 124.308594 C 33.191406 122.800781 34.316406 121.417969 35.53125 120.128906 C 35.546875 120.113281 35.546875 120.097656 35.5625 120.097656 C 35.1875 121.277344 34.96875 122.488281 34.738281 123.71875 C 34.535156 124.757812 34.347656 125.796875 33.988281 126.808594 C 33.738281 127.539062 32.382812 131.015625 31.070312 128.933594 C 30.621094 128.191406 30.839844 127.070312 31.179688 126.125 Z M 34.984375 131.777344 C 34.347656 132.695312 33.441406 133.347656 32.179688 133.4375 C 32.148438 133.4375 32.117188 133.453125 32.085938 133.453125 C 31.492188 133.316406 31.039062 132.910156 30.621094 132.445312 C 30.480469 132.210938 30.355469 131.980469 30.277344 131.699219 C 30.152344 131.3125 30.089844 130.90625 30.058594 130.503906 C 31.070312 131.589844 32.710938 131.746094 33.925781 130.800781 C 35.65625 129.464844 35.5625 127.195312 35.65625 125.269531 C 35.734375 123.746094 35.921875 122.226562 36.21875 120.75 C 36.21875 120.8125 36.21875 120.875 36.21875 120.953125 C 36.1875 122.351562 36.234375 123.746094 36.234375 125.160156 C 36.21875 126.761719 36.109375 128.375 35.6875 129.945312 C 35.546875 130.613281 35.28125 131.203125 34.984375 131.777344 Z M 42.875 107.472656 C 45.261719 101.289062 48.207031 95.402344 51.546875 89.828125 C 51.734375 89.625 51.917969 89.425781 52.105469 89.207031 C 51.828125 89.90625 51.546875 90.605469 51.25 91.304688 C 50.125 93.507812 49.128906 95.792969 48.128906 98.042969 C 48.023438 98.292969 47.914062 98.527344 47.804688 98.773438 C 46.820312 100.792969 45.792969 102.796875 44.636719 104.738281 C 44.078125 105.667969 43.5 106.585938 42.875 107.472656 Z M 79.957031 120.238281 C 76.011719 126.433594 68.152344 128.980469 60.808594 128.78125 C 60.058594 128.765625 59.328125 128.71875 58.578125 128.640625 C 54.664062 128.019531 50.875 126.714844 47.445312 124.757812 C 45.527344 123.65625 43.71875 122.351562 42.238281 120.734375 C 41.566406 120.003906 40.972656 119.210938 40.492188 118.375 C 40.492188 118.3125 40.492188 118.265625 40.492188 118.203125 C 40.628906 118.359375 40.769531 118.5 40.894531 118.636719 C 41.691406 119.726562 42.625 120.6875 43.53125 121.417969 C 49.378906 126.109375 57.71875 127.644531 65.082031 126.652344 C 71.832031 125.734375 79.191406 122.535156 81.734375 116.261719 C 81.359375 117.644531 80.75 118.996094 79.957031 120.238281 Z M 81.828125 114.910156 C 80.609375 118.574219 77.648438 121.402344 74.125 123.203125 C 72.96875 123.792969 71.769531 124.292969 70.523438 124.710938 C 70.507812 124.710938 70.507812 124.710938 70.492188 124.710938 C 65.082031 126.386719 59.109375 126.21875 53.683594 124.492188 C 52.808594 124.167969 51.964844 123.808594 51.125 123.40625 C 48.691406 122.210938 46.445312 120.625 44.558594 118.730469 C 43.546875 117.707031 42.5 116.589844 41.957031 115.253906 C 41.832031 114.957031 41.753906 114.679688 41.707031 114.398438 C 41.738281 114.242188 41.769531 114.101562 41.800781 113.949219 C 42.65625 112.691406 43.65625 111.507812 44.792969 110.46875 C 45.917969 109.445312 47.179688 108.746094 48.503906 108.246094 C 50.109375 107.65625 51.84375 107.410156 53.574219 107.441406 C 54.117188 107.457031 54.648438 107.472656 55.164062 107.472656 C 58.65625 107.550781 62.414062 107.828125 66.203125 107.96875 C 67.574219 108.15625 69.023438 108.078125 70.367188 108.171875 C 72.191406 108.292969 74.964844 108.558594 76.695312 109.148438 C 79.488281 110.113281 81.6875 111.914062 81.828125 114.910156 Z M 87.613281 101.894531 C 86.410156 102.875 85.070312 103.636719 83.652344 104.257812 C 81.8125 105.015625 79.847656 105.515625 77.882812 105.980469 C 73.203125 107.082031 67.855469 107.066406 67.886719 107.128906 C 66.515625 107.113281 65.144531 107.066406 63.816406 107.019531 C 60.699219 106.898438 57.582031 106.695312 54.460938 106.648438 C 56.816406 106.539062 59.171875 106.601562 61.445312 106.539062 C 65.796875 106.429688 70.148438 106.214844 74.390625 105.359375 C 79.253906 104.378906 84.058594 102.410156 87.644531 99.222656 C 89.859375 97.4375 91.558594 95.171875 92.257812 92.40625 C 92.679688 90.746094 92.726562 89.035156 92.351562 87.40625 C 92.601562 87.933594 92.820312 88.460938 93.007812 88.972656 C 93.304688 90.308594 93.382812 91.675781 93.242188 93.027344 C 92.710938 96.492188 90.496094 99.582031 87.613281 101.894531 Z M 87.613281 101.894531 " fill-opacity="1" fill-rule="nonzero"/></g><g clip-path="url(#55fd661b9c)"><path fill="#f2e0d0" d="M 59.09375 12.046875 C 58.09375 9.363281 56.300781 7.109375 53.449219 6.238281 C 51.21875 5.570312 48.800781 6.007812 46.835938 7.171875 C 44.699219 8.429688 43.0625 10.695312 42.40625 13.089844 C 42.175781 13.972656 42.066406 14.921875 42.097656 15.855469 C 41.207031 19.582031 43.65625 23.511719 47.414062 24.472656 C 50.734375 25.328125 54.179688 24.332031 56.707031 22.066406 C 59.4375 19.628906 60.355469 15.449219 59.09375 12.046875 Z M 59.09375 12.046875 " fill-opacity="1" fill-rule="nonzero"/></g><path fill="#f2e0d0" d="M 29.777344 17.359375 C 25.785156 14.765625 20.359375 14.703125 16.367188 17.328125 C 12.53125 19.84375 10.378906 23.480469 8.914062 27.703125 C 7.558594 31.632812 6.621094 36.136719 6.996094 40.316406 C 7.277344 43.375 8.074219 46.140625 10.128906 48.5 C 11.332031 49.867188 12.84375 50.8125 14.511719 51.28125 C 18.347656 53.175781 23.042969 53.222656 27.066406 51.699219 C 32.242188 49.742188 35.890625 46.125 37.746094 40.90625 C 40.660156 32.6875 37.058594 22.113281 29.777344 17.359375 Z M 29.777344 17.359375 " fill-opacity="1" fill-rule="nonzero"/><g fill="#d08841" fill-opacity="1"><g transform="translate(97.136222, 108.911295)"><g><path d="M 20.03125 -7.078125 C 20.21875 -7.109375 20.410156 -7.117188 20.609375 -7.109375 C 20.816406 -7.109375 21.019531 -7.054688 21.21875 -6.953125 C 21.25 -6.921875 21.273438 -6.863281 21.296875 -6.78125 C 21.328125 -6.695312 21.351562 -6.617188 21.375 -6.546875 C 21.375 -6.515625 21.351562 -6.476562 21.3125 -6.4375 C 21.28125 -6.394531 21.25 -6.351562 21.21875 -6.3125 C 21.125 -6.257812 21.035156 -6.222656 20.953125 -6.203125 C 19.804688 -5.984375 18.742188 -5.601562 17.765625 -5.0625 C 16.796875 -4.53125 15.875 -3.910156 15 -3.203125 C 13.800781 -2.273438 12.695312 -1.253906 11.6875 -0.140625 C 10.675781 0.972656 9.722656 2.140625 8.828125 3.359375 C 7.128906 5.640625 5.546875 8.007812 4.078125 10.46875 C 3.742188 11.03125 3.398438 11.585938 3.046875 12.140625 C 3.003906 12.242188 2.945312 12.335938 2.875 12.421875 C 2.71875 12.679688 2.539062 12.925781 2.34375 13.15625 C 1.832031 13.707031 1.234375 13.84375 0.546875 13.5625 C 0.265625 13.414062 0.101562 13.222656 0.0625 12.984375 C 0.0195312 12.753906 0.0234375 12.503906 0.078125 12.234375 C 0.460938 8.773438 0.691406 5.316406 0.765625 1.859375 C 0.898438 -2.785156 0.988281 -7.425781 1.03125 -12.0625 C 1.082031 -16.695312 1.007812 -21.332031 0.8125 -25.96875 C 0.695312 -28.75 0.539062 -31.535156 0.34375 -34.328125 C 0.257812 -35.609375 0.171875 -36.890625 0.078125 -38.171875 C 0.078125 -38.273438 0.0664062 -38.375 0.046875 -38.46875 C 0.0351562 -38.726562 0.03125 -38.988281 0.03125 -39.25 C 0.0625 -39.65625 0.285156 -39.882812 0.703125 -39.9375 C 0.953125 -39.976562 1.175781 -39.953125 1.375 -39.859375 C 1.570312 -39.773438 1.6875 -39.644531 1.71875 -39.46875 C 1.875 -38.8125 1.988281 -38.148438 2.0625 -37.484375 C 2.0625 -37.296875 2.066406 -37.101562 2.078125 -36.90625 C 2.347656 -33.289062 2.578125 -29.671875 2.765625 -26.046875 C 2.953125 -22.460938 3.039062 -18.875 3.03125 -15.28125 C 3.03125 -11.6875 2.988281 -8.085938 2.90625 -4.484375 C 2.84375 -1.546875 2.757812 1.398438 2.65625 4.359375 C 2.644531 5.046875 2.609375 5.726562 2.546875 6.40625 C 2.515625 6.800781 2.492188 7.1875 2.484375 7.5625 C 2.460938 7.90625 2.441406 8.25 2.421875 8.59375 C 2.421875 8.757812 2.410156 8.921875 2.390625 9.078125 C 2.453125 9.097656 2.5 9.113281 2.53125 9.125 C 2.582031 9.125 2.632812 9.132812 2.6875 9.15625 C 2.769531 9.019531 2.859375 8.882812 2.953125 8.75 C 3.179688 8.382812 3.421875 8.019531 3.671875 7.65625 C 5.296875 5.050781 7.09375 2.582031 9.0625 0.25 C 10.0625 -0.925781 11.128906 -2.019531 12.265625 -3.03125 C 13.398438 -4.039062 14.640625 -4.9375 15.984375 -5.71875 C 16.628906 -6.0625 17.28125 -6.351562 17.9375 -6.59375 C 18.59375 -6.84375 19.289062 -7.003906 20.03125 -7.078125 Z M 20.03125 -7.078125 "/></g></g></g><g fill="#d08841" fill-opacity="1"><g transform="translate(115.790913, 108.911295)"><g><path d="M 6.21875 -4.859375 C 5.96875 -4.347656 5.546875 -3.78125 4.953125 -3.15625 C 4.359375 -2.539062 3.679688 -2.144531 2.921875 -1.96875 C 2.171875 -1.800781 1.453125 -2.0625 0.765625 -2.75 C 0.503906 -3.050781 0.3125 -3.398438 0.1875 -3.796875 C 0.0625 -4.191406 0.015625 -4.582031 0.046875 -4.96875 C 0.046875 -5.070312 0.046875 -5.203125 0.046875 -5.359375 C 0.046875 -5.773438 0.0625 -6.25 0.09375 -6.78125 C 0.132812 -7.3125 0.21875 -7.789062 0.34375 -8.21875 C 0.46875 -8.65625 0.660156 -8.914062 0.921875 -9 C 1.679688 -9.195312 2.09375 -8.9375 2.15625 -8.21875 C 2.15625 -7.988281 2.144531 -7.753906 2.125 -7.515625 C 2.113281 -7.398438 2.109375 -7.289062 2.109375 -7.1875 C 2.085938 -6.851562 2.070312 -6.519531 2.0625 -6.1875 C 2.0625 -5.914062 2.050781 -5.648438 2.03125 -5.390625 C 2.007812 -4.234375 2.265625 -3.546875 2.796875 -3.328125 C 3.335938 -3.109375 3.953125 -3.34375 4.640625 -4.03125 C 5.328125 -4.71875 5.773438 -5.285156 5.984375 -5.734375 C 6.191406 -6.191406 6.34375 -6.285156 6.4375 -6.015625 C 6.539062 -5.753906 6.46875 -5.367188 6.21875 -4.859375 Z M 2 -11.46875 C 1.894531 -11.382812 1.769531 -11.328125 1.625 -11.296875 C 1.476562 -11.273438 1.347656 -11.289062 1.234375 -11.34375 C 1.148438 -11.414062 1.09375 -11.507812 1.0625 -11.625 C 1.039062 -11.738281 1.03125 -11.875 1.03125 -12.03125 C 1.03125 -12.070312 1.035156 -12.109375 1.046875 -12.140625 C 1.066406 -12.273438 1.101562 -12.414062 1.15625 -12.5625 C 1.320312 -12.945312 1.65625 -13.125 2.15625 -13.09375 C 2.332031 -13.070312 2.46875 -13 2.5625 -12.875 C 2.664062 -12.757812 2.691406 -12.617188 2.640625 -12.453125 C 2.515625 -12.066406 2.300781 -11.738281 2 -11.46875 Z M 2 -11.46875 "/></g></g></g><g fill="#d08841" fill-opacity="1"><g transform="translate(120.93564, 108.911295)"><g><path d="M 8.796875 -5.765625 C 9.234375 -6.179688 9.421875 -6.285156 9.359375 -6.078125 C 9.296875 -5.867188 9.050781 -5.484375 8.625 -4.921875 C 8.207031 -4.367188 7.679688 -3.769531 7.046875 -3.125 C 6.421875 -2.476562 5.753906 -1.914062 5.046875 -1.4375 C 4.347656 -0.96875 3.679688 -0.710938 3.046875 -0.671875 C 2.273438 -0.671875 1.65625 -0.898438 1.1875 -1.359375 C 0.71875 -1.816406 0.382812 -2.421875 0.1875 -3.171875 C -0.0078125 -3.929688 -0.09375 -4.75 -0.0625 -5.625 C -0.0195312 -6.613281 0.015625 -7.597656 0.046875 -8.578125 C 0.0664062 -9.066406 0.0820312 -9.550781 0.09375 -10.03125 C 0.132812 -10.820312 0.160156 -11.609375 0.171875 -12.390625 C 0.191406 -12.640625 0.15625 -12.847656 0.0625 -13.015625 C -0.03125 -13.179688 -0.203125 -13.273438 -0.453125 -13.296875 C -0.734375 -13.304688 -1.085938 -13.3125 -1.515625 -13.3125 C -1.878906 -13.3125 -2.191406 -13.3125 -2.453125 -13.3125 C -2.816406 -13.351562 -3.0625 -13.453125 -3.1875 -13.609375 C -3.3125 -13.765625 -3.21875 -13.925781 -2.90625 -14.09375 C -2.675781 -14.175781 -2.398438 -14.21875 -2.078125 -14.21875 C -1.765625 -14.226562 -1.457031 -14.226562 -1.15625 -14.21875 C -0.96875 -14.195312 -0.800781 -14.1875 -0.65625 -14.1875 C -0.1875 -14.1875 0.0976562 -14.257812 0.203125 -14.40625 C 0.304688 -14.5625 0.367188 -14.859375 0.390625 -15.296875 C 0.421875 -15.753906 0.445312 -16.222656 0.46875 -16.703125 C 0.476562 -16.941406 0.5 -17.1875 0.53125 -17.4375 C 0.53125 -17.800781 0.625 -18.132812 0.8125 -18.4375 C 1.019531 -18.71875 1.285156 -18.820312 1.609375 -18.75 C 1.890625 -18.6875 2.046875 -18.515625 2.078125 -18.234375 C 2.097656 -17.765625 2.109375 -17.296875 2.109375 -16.828125 C 2.117188 -16.566406 2.117188 -16.300781 2.109375 -16.03125 C 2.109375 -15.757812 2.113281 -15.472656 2.125 -15.171875 C 2.113281 -14.753906 2.160156 -14.488281 2.265625 -14.375 C 2.378906 -14.269531 2.660156 -14.21875 3.109375 -14.21875 C 3.828125 -14.21875 4.535156 -14.21875 5.234375 -14.21875 C 5.554688 -14.21875 6.503906 -14.238281 8.078125 -14.28125 C 9.660156 -14.320312 10.515625 -14.191406 10.640625 -13.890625 C 10.765625 -13.597656 9.765625 -13.425781 7.640625 -13.375 C 6.359375 -13.300781 5.363281 -13.265625 4.65625 -13.265625 C 4.1875 -13.285156 3.765625 -13.296875 3.390625 -13.296875 C 2.753906 -13.296875 2.363281 -13.1875 2.21875 -12.96875 C 2.070312 -12.75 2.007812 -12.304688 2.03125 -11.640625 C 2.007812 -11.078125 1.976562 -10.390625 1.9375 -9.578125 C 1.832031 -7.929688 1.78125 -6.25 1.78125 -4.53125 C 1.820312 -3.34375 2.035156 -2.570312 2.421875 -2.21875 C 2.804688 -1.875 3.304688 -1.8125 3.921875 -2.03125 C 4.535156 -2.25 5.195312 -2.640625 5.90625 -3.203125 C 6.625 -3.765625 7.332031 -4.367188 8.03125 -5.015625 C 8.1875 -5.210938 8.375 -5.398438 8.59375 -5.578125 C 8.664062 -5.640625 8.734375 -5.703125 8.796875 -5.765625 Z M 8.796875 -5.765625 "/></g></g></g><g fill="#d08841" fill-opacity="1"><g transform="translate(128.835056, 108.911295)"><g><path d="M 8.796875 -5.765625 C 9.234375 -6.179688 9.421875 -6.285156 9.359375 -6.078125 C 9.296875 -5.867188 9.050781 -5.484375 8.625 -4.921875 C 8.207031 -4.367188 7.679688 -3.769531 7.046875 -3.125 C 6.421875 -2.476562 5.753906 -1.914062 5.046875 -1.4375 C 4.347656 -0.96875 3.679688 -0.710938 3.046875 -0.671875 C 2.273438 -0.671875 1.65625 -0.898438 1.1875 -1.359375 C 0.71875 -1.816406 0.382812 -2.421875 0.1875 -3.171875 C -0.0078125 -3.929688 -0.09375 -4.75 -0.0625 -5.625 C -0.0195312 -6.613281 0.015625 -7.597656 0.046875 -8.578125 C 0.0664062 -9.066406 0.0820312 -9.550781 0.09375 -10.03125 C 0.132812 -10.820312 0.160156 -11.609375 0.171875 -12.390625 C 0.191406 -12.640625 0.15625 -12.847656 0.0625 -13.015625 C -0.03125 -13.179688 -0.203125 -13.273438 -0.453125 -13.296875 C -0.734375 -13.304688 -1.085938 -13.3125 -1.515625 -13.3125 C -1.878906 -13.3125 -2.191406 -13.3125 -2.453125 -13.3125 C -2.816406 -13.351562 -3.0625 -13.453125 -3.1875 -13.609375 C -3.3125 -13.765625 -3.21875 -13.925781 -2.90625 -14.09375 C -2.675781 -14.175781 -2.398438 -14.21875 -2.078125 -14.21875 C -1.765625 -14.226562 -1.457031 -14.226562 -1.15625 -14.21875 C -0.96875 -14.195312 -0.800781 -14.1875 -0.65625 -14.1875 C -0.1875 -14.1875 0.0976562 -14.257812 0.203125 -14.40625 C 0.304688 -14.5625 0.367188 -14.859375 0.390625 -15.296875 C 0.421875 -15.753906 0.445312 -16.222656 0.46875 -16.703125 C 0.476562 -16.941406 0.5 -17.1875 0.53125 -17.4375 C 0.53125 -17.800781 0.625 -18.132812 0.8125 -18.4375 C 1.019531 -18.71875 1.285156 -18.820312 1.609375 -18.75 C 1.890625 -18.6875 2.046875 -18.515625 2.078125 -18.234375 C 2.097656 -17.765625 2.109375 -17.296875 2.109375 -16.828125 C 2.117188 -16.566406 2.117188 -16.300781 2.109375 -16.03125 C 2.109375 -15.757812 2.113281 -15.472656 2.125 -15.171875 C 2.113281 -14.753906 2.160156 -14.488281 2.265625 -14.375 C 2.378906 -14.269531 2.660156 -14.21875 3.109375 -14.21875 C 3.828125 -14.21875 4.535156 -14.21875 5.234375 -14.21875 C 5.554688 -14.21875 6.503906 -14.238281 8.078125 -14.28125 C 9.660156 -14.320312 10.515625 -14.191406 10.640625 -13.890625 C 10.765625 -13.597656 9.765625 -13.425781 7.640625 -13.375 C 6.359375 -13.300781 5.363281 -13.265625 4.65625 -13.265625 C 4.1875 -13.285156 3.765625 -13.296875 3.390625 -13.296875 C 2.753906 -13.296875 2.363281 -13.1875 2.21875 -12.96875 C 2.070312 -12.75 2.007812 -12.304688 2.03125 -11.640625 C 2.007812 -11.078125 1.976562 -10.390625 1.9375 -9.578125 C 1.832031 -7.929688 1.78125 -6.25 1.78125 -4.53125 C 1.820312 -3.34375 2.035156 -2.570312 2.421875 -2.21875 C 2.804688 -1.875 3.304688 -1.8125 3.921875 -2.03125 C 4.535156 -2.25 5.195312 -2.640625 5.90625 -3.203125 C 6.625 -3.765625 7.332031 -4.367188 8.03125 -5.015625 C 8.1875 -5.210938 8.375 -5.398438 8.59375 -5.578125 C 8.664062 -5.640625 8.734375 -5.703125 8.796875 -5.765625 Z M 8.796875 -5.765625 "/></g></g></g><g fill="#d08841" fill-opacity="1"><g transform="translate(136.734476, 108.911295)"><g><path d="M 8.640625 -5.578125 C 8.785156 -5.910156 8.9375 -6.078125 9.09375 -6.078125 C 9.25 -6.078125 9.300781 -5.910156 9.25 -5.578125 C 8.988281 -4.765625 8.671875 -3.984375 8.296875 -3.234375 C 7.929688 -2.492188 7.429688 -1.828125 6.796875 -1.234375 C 6.316406 -0.753906 5.75 -0.445312 5.09375 -0.3125 C 4.1875 -0.1875 3.4375 -0.296875 2.84375 -0.640625 C 2.257812 -0.984375 1.796875 -1.472656 1.453125 -2.109375 C 1.117188 -2.753906 0.863281 -3.457031 0.6875 -4.21875 C 0.519531 -4.976562 0.414062 -5.71875 0.375 -6.4375 C 0.238281 -7.800781 0.140625 -9.585938 0.078125 -11.796875 C 0.0234375 -14.003906 0.0507812 -16.34375 0.15625 -18.8125 C 0.257812 -21.28125 0.5 -23.566406 0.875 -25.671875 C 1.257812 -27.785156 1.816406 -29.421875 2.546875 -30.578125 C 2.972656 -31.148438 3.46875 -31.4375 4.03125 -31.4375 C 4.59375 -31.445312 5.09375 -31.191406 5.53125 -30.671875 C 5.832031 -30.253906 6.054688 -29.816406 6.203125 -29.359375 C 6.359375 -28.910156 6.457031 -28.453125 6.5 -27.984375 C 6.664062 -26.359375 6.644531 -24.644531 6.4375 -22.84375 C 6.238281 -21.039062 5.921875 -19.117188 5.484375 -17.078125 C 5.054688 -15.035156 4.539062 -13.234375 3.9375 -11.671875 C 3.34375 -10.117188 2.847656 -8.890625 2.453125 -7.984375 C 2.234375 -7.609375 2.15625 -7.050781 2.21875 -6.3125 C 2.289062 -5.507812 2.441406 -4.664062 2.671875 -3.78125 C 2.910156 -2.90625 3.242188 -2.210938 3.671875 -1.703125 C 4.066406 -1.273438 4.507812 -1.140625 5 -1.296875 C 5.5 -1.460938 5.992188 -1.800781 6.484375 -2.3125 C 6.972656 -2.820312 7.40625 -3.378906 7.78125 -3.984375 C 8.15625 -4.585938 8.441406 -5.117188 8.640625 -5.578125 Z M 2.265625 -17.828125 C 2.210938 -17.304688 2.164062 -16.507812 2.125 -15.4375 C 2.082031 -14.375 2.039062 -13.289062 2 -12.1875 C 1.96875 -10.957031 1.929688 -10 1.890625 -9.3125 C 2.285156 -10.195312 2.738281 -11.476562 3.25 -13.15625 C 3.769531 -14.832031 4.242188 -16.804688 4.671875 -19.078125 C 5.097656 -21.359375 5.378906 -23.820312 5.515625 -26.46875 C 5.441406 -28.019531 5.253906 -29.070312 4.953125 -29.625 C 4.648438 -30.175781 4.320312 -30.222656 3.96875 -29.765625 C 3.625 -29.304688 3.347656 -28.347656 3.140625 -26.890625 C 2.816406 -24.472656 2.566406 -22.050781 2.390625 -19.625 C 2.347656 -19.019531 2.304688 -18.421875 2.265625 -17.828125 Z M 2.265625 -17.828125 "/></g></g></g><g fill="#d08841" fill-opacity="1"><g transform="translate(144.514126, 108.911295)"><g><path d="M 11.546875 -5.78125 C 11.722656 -5.882812 11.894531 -5.960938 12.0625 -6.015625 C 12.226562 -6.078125 12.335938 -6.078125 12.390625 -6.015625 C 12.441406 -5.953125 12.375 -5.804688 12.1875 -5.578125 C 11.582031 -4.890625 10.863281 -4.257812 10.03125 -3.6875 C 9.195312 -3.125 8.34375 -2.644531 7.46875 -2.25 C 6.78125 -1.9375 6.050781 -1.6875 5.28125 -1.5 C 4.519531 -1.320312 3.765625 -1.285156 3.015625 -1.390625 C 2.273438 -1.492188 1.597656 -1.828125 0.984375 -2.390625 C 0.046875 -3.242188 -0.335938 -4.296875 -0.171875 -5.546875 C -0.0351562 -6.535156 0.34375 -7.375 0.96875 -8.0625 C 1.601562 -8.757812 2.40625 -9.226562 3.375 -9.46875 C 4.1875 -9.644531 4.992188 -9.664062 5.796875 -9.53125 C 6.160156 -9.476562 6.492188 -9.351562 6.796875 -9.15625 C 7.078125 -8.945312 7.234375 -8.695312 7.265625 -8.40625 C 7.296875 -8.125 7.1875 -7.847656 6.9375 -7.578125 C 6.425781 -7.128906 5.832031 -6.859375 5.15625 -6.765625 C 4.40625 -6.640625 3.65625 -6.5625 2.90625 -6.53125 C 2.53125 -6.53125 2.269531 -6.453125 2.125 -6.296875 C 1.976562 -6.148438 1.894531 -5.890625 1.875 -5.515625 C 1.75 -4.523438 2.066406 -3.710938 2.828125 -3.078125 C 3.296875 -2.703125 3.867188 -2.539062 4.546875 -2.59375 C 5.222656 -2.65625 5.9375 -2.835938 6.6875 -3.140625 C 7.445312 -3.453125 8.191406 -3.8125 8.921875 -4.21875 C 9.648438 -4.632812 10.304688 -5.023438 10.890625 -5.390625 C 11.140625 -5.546875 11.359375 -5.675781 11.546875 -5.78125 Z M 3.21875 -7.921875 C 3.21875 -7.898438 3.207031 -7.890625 3.1875 -7.890625 C 3.15625 -7.859375 3.113281 -7.820312 3.0625 -7.78125 C 3.007812 -7.738281 2.957031 -7.691406 2.90625 -7.640625 C 2.863281 -7.597656 2.84375 -7.570312 2.84375 -7.5625 C 2.863281 -7.5 3.007812 -7.484375 3.28125 -7.515625 C 3.550781 -7.546875 3.847656 -7.59375 4.171875 -7.65625 C 4.503906 -7.726562 4.78125 -7.820312 5 -7.9375 C 5.21875 -8.050781 5.285156 -8.1875 5.203125 -8.34375 C 5.160156 -8.394531 5.109375 -8.4375 5.046875 -8.46875 C 4.984375 -8.507812 4.914062 -8.535156 4.84375 -8.546875 C 4.53125 -8.546875 4.238281 -8.484375 3.96875 -8.359375 C 3.707031 -8.242188 3.457031 -8.097656 3.21875 -7.921875 Z M 3.21875 -7.921875 "/></g></g></g><g mask="url(#cd7347642d)"><g transform="matrix(1, 0, 0, 1, 178, 59)"><g clip-path="url(#48ce884a13)"><g clip-path="url(#b495e6929e)"><path fill="#71a674" d="M 15.84375 41.230469 C 15.5 41.089844 15.136719 41.378906 15.1875 41.75 C 15.433594 43.59375 16.4375 48.09375 20.386719 49.0625 C 21.304688 49.289062 22.046875 48.796875 22.082031 47.933594 C 22.230469 44.175781 17.664062 41.960938 15.84375 41.230469 Z M 33.601562 40.648438 C 33.285156 42.480469 32.105469 46.9375 28.121094 47.75 C 27.195312 47.941406 26.472656 47.417969 26.472656 46.554688 C 26.46875 42.792969 31.117188 40.761719 32.964844 40.101562 C 33.316406 39.976562 33.667969 40.277344 33.601562 40.648438 " fill-opacity="1" fill-rule="nonzero"/></g><g clip-path="url(#1ff80a9da8)"><path fill="#466f4f" d="M 21.6875 48.476562 C 21.203125 48.15625 20.785156 47.726562 20.386719 47.308594 C 20.207031 47.121094 20.035156 46.933594 19.863281 46.742188 C 19.847656 45.925781 19.832031 45.113281 19.820312 44.296875 C 19.816406 44.175781 19.816406 44.054688 19.8125 43.933594 C 19.808594 43.695312 19.4375 43.691406 19.445312 43.933594 C 19.457031 44.726562 19.472656 45.519531 19.484375 46.3125 C 19.265625 46.058594 19.046875 45.800781 18.832031 45.539062 C 18.828125 45.535156 18.820312 45.527344 18.816406 45.519531 C 18.824219 44.878906 18.832031 44.234375 18.839844 43.589844 C 18.839844 43.496094 18.839844 43.402344 18.839844 43.308594 C 18.84375 43.070312 18.476562 43.070312 18.472656 43.308594 C 18.464844 43.894531 18.460938 44.484375 18.453125 45.074219 C 17.675781 44.113281 16.925781 43.132812 16.195312 42.136719 C 16.015625 41.890625 15.835938 41.644531 15.660156 41.398438 C 15.523438 41.207031 15.203125 41.390625 15.339844 41.585938 C 15.847656 42.292969 16.367188 42.988281 16.890625 43.679688 C 17.304688 44.21875 17.722656 44.757812 18.152344 45.292969 C 17.703125 45.226562 17.253906 45.160156 16.804688 45.09375 C 16.707031 45.078125 16.605469 45.117188 16.578125 45.222656 C 16.554688 45.3125 16.609375 45.4375 16.707031 45.453125 C 17.300781 45.539062 17.898438 45.628906 18.496094 45.714844 C 18.730469 46.003906 18.976562 46.292969 19.222656 46.578125 C 18.585938 46.476562 17.949219 46.378906 17.316406 46.277344 C 17.082031 46.242188 16.984375 46.601562 17.21875 46.636719 C 18.015625 46.761719 18.808594 46.886719 19.605469 47.011719 C 19.726562 47.144531 19.847656 47.277344 19.96875 47.40625 C 20.4375 47.90625 20.925781 48.417969 21.5 48.796875 C 21.699219 48.929688 21.886719 48.605469 21.6875 48.476562 Z M 33.167969 40.246094 C 32.648438 40.921875 32.113281 41.582031 31.570312 42.234375 C 31.125 42.777344 30.671875 43.316406 30.210938 43.84375 C 30.222656 43.347656 30.238281 42.847656 30.25 42.347656 C 30.253906 42.253906 30.257812 42.160156 30.257812 42.066406 C 30.265625 41.828125 29.894531 41.828125 29.890625 42.066406 C 29.871094 42.71875 29.855469 43.371094 29.835938 44.027344 C 29.832031 44.109375 29.832031 44.191406 29.828125 44.277344 C 29.597656 44.535156 29.367188 44.789062 29.128906 45.042969 C 29.167969 44.367188 29.207031 43.691406 29.242188 43.015625 C 29.25 42.894531 29.257812 42.773438 29.261719 42.652344 C 29.277344 42.414062 28.90625 42.414062 28.894531 42.652344 C 28.847656 43.496094 28.800781 44.34375 28.75 45.1875 C 28.746094 45.277344 28.742188 45.363281 28.734375 45.453125 C 28.621094 45.570312 28.503906 45.6875 28.386719 45.804688 C 27.910156 46.277344 27.414062 46.769531 26.835938 47.117188 C 26.632812 47.238281 26.820312 47.558594 27.023438 47.4375 C 27.535156 47.128906 27.980469 46.710938 28.410156 46.300781 C 28.605469 46.113281 28.792969 45.921875 28.980469 45.730469 C 29.765625 45.636719 30.554688 45.546875 31.339844 45.457031 C 31.574219 45.425781 31.578125 45.054688 31.339844 45.085938 C 30.6875 45.160156 30.03125 45.234375 29.378906 45.3125 C 29.601562 45.074219 29.824219 44.832031 30.042969 44.585938 C 30.074219 44.550781 30.105469 44.515625 30.136719 44.480469 C 30.722656 44.417969 31.3125 44.355469 31.898438 44.292969 C 31.996094 44.28125 32.082031 44.214844 32.082031 44.105469 C 32.082031 44.011719 31.996094 43.910156 31.898438 43.921875 C 31.429688 43.96875 30.964844 44.019531 30.496094 44.070312 C 31.308594 43.144531 32.09375 42.199219 32.859375 41.234375 C 33.046875 40.996094 33.242188 40.753906 33.429688 40.507812 C 33.570312 40.324219 33.3125 40.058594 33.167969 40.246094 Z M 25.097656 45.96875 C 25.179688 48.257812 25.101562 50.546875 24.859375 52.824219 C 24.824219 53.140625 24.628906 53.375 24.296875 53.390625 C 24.019531 53.402344 23.707031 53.121094 23.738281 52.824219 C 23.769531 52.527344 23.800781 52.230469 23.828125 51.929688 C 24.023438 49.703125 24.058594 47.460938 23.945312 45.230469 C 23.894531 44.222656 23.8125 43.21875 23.699219 42.214844 C 23.671875 41.984375 23.644531 41.757812 23.617188 41.527344 C 23.609375 41.460938 23.597656 41.394531 23.589844 41.328125 C 23.585938 41.300781 23.582031 41.277344 23.582031 41.25 C 23.566406 41.144531 23.550781 41.042969 23.535156 40.9375 C 23.472656 40.492188 23.40625 40.050781 23.332031 39.605469 C 23.078125 38.105469 22.753906 36.613281 22.363281 35.140625 C 22.101562 34.167969 21.8125 33.203125 21.480469 32.253906 C 21.464844 32.207031 21.449219 32.160156 21.429688 32.113281 C 20.597656 31.476562 18.632812 30.046875 18.632812 30.046875 C 18.632812 30.046875 20.078125 29.5 21.234375 30.347656 C 21.316406 30.40625 21.386719 30.46875 21.453125 30.527344 C 21.460938 30.527344 21.476562 30.523438 21.488281 30.519531 C 21.503906 30.433594 21.523438 30.339844 21.558594 30.246094 C 22.011719 28.882812 23.503906 28.488281 23.503906 28.488281 C 23.503906 28.488281 22.800781 30.59375 22.464844 31.679688 C 22.527344 31.855469 22.585938 32.027344 22.644531 32.199219 C 22.996094 33.226562 23.300781 34.269531 23.566406 35.320312 C 23.957031 36.851562 24.273438 38.402344 24.515625 39.960938 C 24.824219 41.949219 25.023438 43.957031 25.097656 45.96875 " fill-opacity="1" fill-rule="nonzero"/></g><path fill="#ecb147" d="M 26.964844 16.691406 C 28.84375 19.898438 29.550781 24.648438 28.164062 25.890625 C 28.03125 26.011719 27.902344 26.136719 27.777344 26.269531 C 26.59375 27.558594 22.378906 26.921875 19.261719 25.226562 C 17.652344 28.453125 14.441406 31.472656 12.734375 31.0625 C 12.5625 31.023438 12.386719 30.988281 12.210938 30.964844 C 10.457031 30.722656 8.535156 26.671875 8.222656 23.050781 C 7.414062 22.910156 6.621094 22.695312 5.890625 22.449219 C 4.300781 21.917969 2.386719 21.207031 1.523438 19.628906 C 1.402344 19.40625 1.316406 19.1875 1.253906 18.96875 C 0.734375 17.117188 2.277344 15.433594 3.605469 14.214844 C 4.640625 13.261719 5.921875 12.296875 7.304688 11.652344 C 6.535156 7.949219 8.042969 2.558594 10.195312 1.695312 C 10.390625 1.617188 10.582031 1.53125 10.769531 1.433594 C 13.105469 0.273438 19.117188 3.535156 20.75 7.074219 C 24 5.667969 28.210938 5.378906 29.257812 6.71875 C 29.363281 6.859375 29.480469 6.992188 29.601562 7.121094 C 30.953125 8.546875 29.480469 13.777344 26.964844 16.691406 " fill-opacity="1" fill-rule="nonzero"/><path fill="#d08841" d="M 29.75 7.761719 C 29.0625 8.269531 28.375 8.773438 27.683594 9.277344 C 25.457031 10.882812 23.203125 12.445312 20.914062 13.960938 C 22.714844 13.914062 24.832031 14.535156 26.964844 16.691406 C 26.964844 16.691406 24.265625 19.046875 21.085938 18.894531 C 21.4375 19.203125 21.789062 19.511719 22.136719 19.828125 C 24.257812 21.734375 26.300781 23.726562 28.402344 25.652344 C 28.722656 25.945312 28.246094 26.421875 27.925781 26.128906 C 27.398438 25.644531 26.875 25.15625 26.355469 24.667969 C 24.375 22.808594 22.414062 20.929688 20.359375 19.15625 C 21.371094 22.121094 19.261719 25.226562 19.261719 25.226562 C 17.277344 23.992188 16.230469 22.636719 15.738281 21.335938 C 15.679688 21.523438 15.625 21.707031 15.566406 21.894531 C 14.621094 24.882812 13.566406 27.832031 12.613281 30.816406 C 12.480469 31.230469 11.832031 31.050781 11.964844 30.636719 C 12.214844 29.847656 12.476562 29.0625 12.738281 28.28125 C 13.535156 25.90625 14.359375 23.542969 15.097656 21.152344 C 12.445312 23.675781 8.21875 23.03125 8.21875 23.03125 C 8.875 20.21875 10.238281 18.582031 11.707031 17.628906 C 10.195312 17.796875 8.683594 17.96875 7.171875 18.148438 C 5.269531 18.375 3.425781 18.597656 1.546875 18.894531 C 1.367188 18.925781 1.1875 18.851562 1.132812 18.660156 C 1.089844 18.496094 1.1875 18.273438 1.367188 18.242188 C 2.378906 18.082031 3.390625 17.945312 4.40625 17.816406 C 6.421875 17.554688 8.441406 17.316406 10.460938 17.089844 C 11.105469 17.019531 11.75 16.949219 12.394531 16.878906 C 8.816406 15.828125 7.316406 11.695312 7.316406 11.695312 C 11.34375 10.585938 13.925781 11.972656 15.460938 13.515625 C 15.132812 12.757812 14.800781 12 14.464844 11.242188 C 13.542969 9.175781 12.605469 7.113281 11.65625 5.054688 C 11.195312 4.054688 10.734375 3.050781 10.265625 2.050781 C 10.1875 1.886719 10.21875 1.6875 10.386719 1.589844 C 10.535156 1.503906 10.769531 1.542969 10.847656 1.710938 C 11.007812 2.058594 11.171875 2.40625 11.332031 2.753906 C 12.152344 4.519531 12.964844 6.292969 13.769531 8.066406 C 14.566406 9.820312 15.359375 11.578125 16.117188 13.347656 C 16.285156 11.472656 17.308594 9.082031 20.753906 7.074219 C 20.753906 7.074219 22.351562 10.382812 20.617188 13.347656 C 21.082031 13.039062 21.550781 12.730469 22.011719 12.417969 C 24.515625 10.726562 26.984375 8.976562 29.410156 7.175781 C 29.558594 7.066406 29.785156 7.152344 29.871094 7.296875 C 29.96875 7.46875 29.894531 7.652344 29.75 7.761719 " fill-opacity="1" fill-rule="nonzero"/><path fill="#a55c1d" d="M 17.746094 19.132812 C 17.746094 19.132812 12.890625 18.167969 13.878906 16.007812 C 14.636719 14.359375 16.542969 15.292969 16.542969 15.292969 C 16.542969 15.292969 17.382812 13.417969 18.96875 14.285156 C 21.046875 15.417969 17.746094 19.132812 17.746094 19.132812 " fill-opacity="1" fill-rule="nonzero"/></g></g></g><g fill="#3b3937" fill-opacity="1"><g transform="translate(103.484803, 132.566518)"><g><path d="M 1.390625 0 L 1.390625 -7.78125 L 1.640625 -7.78125 L 1.640625 -7.15625 C 1.640625 -6.289062 1.851562 -5.4375 2.28125 -4.59375 C 2.71875 -3.75 3.304688 -2.988281 4.046875 -2.3125 C 4.796875 -1.644531 5.632812 -1.109375 6.5625 -0.703125 C 7.5 -0.304688 8.46875 -0.109375 9.46875 -0.109375 C 10.789062 -0.109375 11.847656 -0.28125 12.640625 -0.625 C 13.429688 -0.96875 14.007812 -1.429688 14.375 -2.015625 C 14.75 -2.597656 14.945312 -3.222656 14.96875 -3.890625 C 14.988281 -4.503906 14.804688 -5.070312 14.421875 -5.59375 C 14.046875 -6.113281 13.535156 -6.601562 12.890625 -7.0625 C 12.242188 -7.519531 11.535156 -7.960938 10.765625 -8.390625 C 9.992188 -8.816406 9.226562 -9.242188 8.46875 -9.671875 C 7.71875 -10.097656 7.046875 -10.53125 6.453125 -10.96875 C 5.085938 -11.988281 4.03125 -12.914062 3.28125 -13.75 C 2.539062 -14.582031 2.101562 -15.414062 1.96875 -16.25 C 1.832031 -17.082031 1.992188 -18.015625 2.453125 -19.046875 C 2.867188 -19.992188 3.46875 -20.8125 4.25 -21.5 C 5.039062 -22.1875 5.945312 -22.71875 6.96875 -23.09375 C 7.988281 -23.46875 9.039062 -23.65625 10.125 -23.65625 C 10.613281 -23.65625 11.09375 -23.613281 11.5625 -23.53125 C 12.039062 -23.445312 12.488281 -23.304688 12.90625 -23.109375 C 13.132812 -23.003906 13.421875 -22.878906 13.765625 -22.734375 C 14.117188 -22.585938 14.46875 -22.472656 14.8125 -22.390625 C 15.15625 -22.304688 15.445312 -22.285156 15.6875 -22.328125 C 15.9375 -22.378906 16.070312 -22.53125 16.09375 -22.78125 L 16.09375 -22.890625 L 16.328125 -22.890625 L 16.328125 -16.4375 L 16.09375 -16.4375 C 16.09375 -16.4375 16.078125 -16.59375 16.046875 -16.90625 C 16.015625 -17.226562 15.957031 -17.632812 15.875 -18.125 C 15.800781 -18.613281 15.664062 -19.140625 15.46875 -19.703125 C 15.28125 -20.265625 15.023438 -20.800781 14.703125 -21.3125 C 14.390625 -21.820312 13.988281 -22.226562 13.5 -22.53125 C 13.03125 -22.8125 12.507812 -23.023438 11.9375 -23.171875 C 11.363281 -23.328125 10.757812 -23.40625 10.125 -23.40625 C 9.070312 -23.40625 8.238281 -23.242188 7.625 -22.921875 C 7.007812 -22.609375 6.570312 -22.179688 6.3125 -21.640625 C 6.0625 -21.097656 5.9375 -20.476562 5.9375 -19.78125 C 5.9375 -18.863281 6.253906 -18.046875 6.890625 -17.328125 C 7.523438 -16.609375 8.492188 -15.847656 9.796875 -15.046875 C 10.921875 -14.359375 11.984375 -13.75 12.984375 -13.21875 C 13.984375 -12.695312 14.863281 -12.15625 15.625 -11.59375 C 16.382812 -11.03125 16.984375 -10.359375 17.421875 -9.578125 C 17.867188 -8.796875 18.09375 -7.804688 18.09375 -6.609375 C 18.09375 -5.828125 17.910156 -4.992188 17.546875 -4.109375 C 17.191406 -3.234375 16.738281 -2.523438 16.1875 -1.984375 C 15.613281 -1.398438 14.898438 -0.941406 14.046875 -0.609375 C 13.191406 -0.273438 12.269531 -0.0625 11.28125 0.03125 C 10.289062 0.132812 9.300781 0.128906 8.3125 0.015625 C 7.320312 -0.0976562 6.394531 -0.320312 5.53125 -0.65625 C 4.601562 -1.019531 3.875 -1.242188 3.34375 -1.328125 C 2.820312 -1.421875 2.4375 -1.414062 2.1875 -1.3125 C 1.945312 -1.21875 1.796875 -1.054688 1.734375 -0.828125 C 1.671875 -0.597656 1.640625 -0.332031 1.640625 -0.03125 L 1.640625 0 Z M 1.390625 0 "/></g></g></g><g fill="#3b3937" fill-opacity="1"><g transform="translate(122.398496, 132.566518)"><g><path d="M 1.359375 -0.25 C 2.359375 -0.25 3.144531 -0.503906 3.71875 -1.015625 C 4.289062 -1.535156 4.578125 -2.238281 4.578125 -3.125 L 4.578125 -20.328125 C 4.578125 -21.234375 4.289062 -21.941406 3.71875 -22.453125 C 3.144531 -22.960938 2.359375 -23.21875 1.359375 -23.21875 L 1.359375 -23.46875 L 13.421875 -23.46875 L 13.421875 -23.21875 C 12.421875 -23.21875 11.632812 -22.960938 11.0625 -22.453125 C 10.488281 -21.941406 10.203125 -21.234375 10.203125 -20.328125 L 10.203125 -11.265625 L 19.515625 -11.265625 L 19.515625 -20.328125 C 19.515625 -21.234375 19.226562 -21.941406 18.65625 -22.453125 C 18.082031 -22.960938 17.296875 -23.21875 16.296875 -23.21875 L 16.296875 -23.46875 L 28.359375 -23.46875 L 28.359375 -23.21875 C 27.359375 -23.21875 26.570312 -22.960938 26 -22.453125 C 25.4375 -21.941406 25.15625 -21.234375 25.15625 -20.328125 L 25.15625 -3.125 C 25.15625 -2.238281 25.4375 -1.535156 26 -1.015625 C 26.570312 -0.503906 27.359375 -0.25 28.359375 -0.25 L 28.359375 0 L 16.296875 0 L 16.296875 -0.25 C 17.296875 -0.25 18.082031 -0.503906 18.65625 -1.015625 C 19.226562 -1.535156 19.515625 -2.238281 19.515625 -3.125 L 19.515625 -11.03125 L 10.203125 -11.03125 L 10.203125 -3.125 C 10.203125 -2.238281 10.488281 -1.535156 11.0625 -1.015625 C 11.632812 -0.503906 12.421875 -0.25 13.421875 -0.25 L 13.421875 0 L 1.359375 0 Z M 1.359375 -0.25 "/></g></g></g><g fill="#3b3937" fill-opacity="1"><g transform="translate(152.116121, 132.566518)"><g><path d="M 1.359375 -0.25 C 2.359375 -0.25 3.144531 -0.503906 3.71875 -1.015625 C 4.289062 -1.535156 4.578125 -2.238281 4.578125 -3.125 L 4.578125 -20.328125 C 4.578125 -21.234375 4.289062 -21.941406 3.71875 -22.453125 C 3.144531 -22.960938 2.359375 -23.21875 1.359375 -23.21875 L 1.359375 -23.46875 L 13.421875 -23.46875 L 13.421875 -23.21875 C 12.421875 -23.21875 11.632812 -22.960938 11.0625 -22.453125 C 10.488281 -21.941406 10.203125 -21.234375 10.203125 -20.328125 L 10.203125 -3.125 C 10.203125 -2.238281 10.488281 -1.535156 11.0625 -1.015625 C 11.632812 -0.503906 12.421875 -0.25 13.421875 -0.25 L 13.421875 0 L 1.359375 0 Z M 1.359375 -0.25 "/></g></g></g><g fill="#3b3937" fill-opacity="1"><g transform="translate(166.893292, 132.566518)"><g><path d="M 1.359375 -0.25 C 2.359375 -0.25 3.144531 -0.503906 3.71875 -1.015625 C 4.289062 -1.535156 4.578125 -2.238281 4.578125 -3.125 L 4.578125 -20.328125 C 4.578125 -21.234375 4.289062 -21.941406 3.71875 -22.453125 C 3.144531 -22.960938 2.359375 -23.21875 1.359375 -23.21875 L 1.359375 -23.46875 L 19.875 -23.46875 L 20.796875 -17.421875 L 20.578125 -17.3125 L 20.5 -17.796875 C 20.445312 -18.066406 20.332031 -18.429688 20.15625 -18.890625 C 19.976562 -19.347656 19.707031 -19.820312 19.34375 -20.3125 C 18.988281 -20.800781 18.503906 -21.265625 17.890625 -21.703125 C 17.285156 -22.148438 16.515625 -22.515625 15.578125 -22.796875 C 14.648438 -23.078125 13.519531 -23.21875 12.1875 -23.21875 L 10.234375 -23.21875 L 10.234375 -20.765625 C 10.210938 -20.691406 10.203125 -20.617188 10.203125 -20.546875 C 10.203125 -20.472656 10.203125 -20.398438 10.203125 -20.328125 L 10.203125 -12.4375 L 14.3125 -12.4375 C 14.945312 -12.457031 15.445312 -12.582031 15.8125 -12.8125 C 16.175781 -13.050781 16.441406 -13.34375 16.609375 -13.6875 C 16.785156 -14.03125 16.90625 -14.359375 16.96875 -14.671875 C 17.03125 -14.984375 17.0625 -15.21875 17.0625 -15.375 L 17.0625 -15.515625 L 17.3125 -15.515625 L 17.3125 -9.09375 L 17.0625 -9.09375 L 17.0625 -9.234375 C 17.0625 -9.390625 17.03125 -9.617188 16.96875 -9.921875 C 16.90625 -10.234375 16.785156 -10.5625 16.609375 -10.90625 C 16.441406 -11.257812 16.175781 -11.554688 15.8125 -11.796875 C 15.445312 -12.046875 14.945312 -12.175781 14.3125 -12.1875 L 10.203125 -12.1875 L 10.203125 -3.125 C 10.203125 -2.238281 10.488281 -1.535156 11.0625 -1.015625 C 11.632812 -0.503906 12.421875 -0.25 13.421875 -0.25 L 13.421875 0 L 1.359375 0 Z M 1.359375 -0.25 "/></g></g></g><g fill="#3b3937" fill-opacity="1"><g transform="translate(189.045437, 132.566518)"><g><path d="M 7 -0.25 C 8 -0.25 8.78125 -0.503906 9.34375 -1.015625 C 9.914062 -1.535156 10.203125 -2.238281 10.203125 -3.125 L 10.203125 -23.21875 L 9.9375 -23.21875 C 8.613281 -23.21875 7.488281 -23.078125 6.5625 -22.796875 C 5.632812 -22.515625 4.863281 -22.148438 4.25 -21.703125 C 3.644531 -21.265625 3.160156 -20.800781 2.796875 -20.3125 C 2.441406 -19.820312 2.175781 -19.347656 2 -18.890625 C 1.820312 -18.429688 1.707031 -18.066406 1.65625 -17.796875 L 1.578125 -17.3125 L 1.359375 -17.421875 L 2.28125 -23.46875 L 23.734375 -23.46875 L 24.65625 -17.421875 L 24.4375 -17.3125 L 24.359375 -17.796875 C 24.304688 -18.066406 24.191406 -18.429688 24.015625 -18.890625 C 23.847656 -19.347656 23.582031 -19.820312 23.21875 -20.3125 C 22.851562 -20.800781 22.363281 -21.265625 21.75 -21.703125 C 21.144531 -22.148438 20.378906 -22.515625 19.453125 -22.796875 C 18.535156 -23.078125 17.414062 -23.21875 16.09375 -23.21875 L 15.84375 -23.21875 L 15.84375 -3.125 C 15.84375 -2.238281 16.128906 -1.535156 16.703125 -1.015625 C 17.273438 -0.503906 18.054688 -0.25 19.046875 -0.25 L 19.046875 0 L 7 0 Z M 7 -0.25 "/></g></g></g><g fill="#3b3937" fill-opacity="1"><g transform="translate(215.061968, 132.566518)"><g><path d="M 5.53125 -0.65625 C 4.601562 -1.019531 3.875 -1.242188 3.34375 -1.328125 C 2.820312 -1.421875 2.4375 -1.414062 2.1875 -1.3125 C 1.945312 -1.21875 1.796875 -1.054688 1.734375 -0.828125 C 1.671875 -0.597656 1.640625 -0.332031 1.640625 -0.03125 L 1.640625 0 L 1.390625 0 L 1.390625 -7.78125 L 1.640625 -7.78125 L 1.640625 -7.15625 C 1.640625 -6.289062 1.851562 -5.4375 2.28125 -4.59375 C 2.71875 -3.75 3.304688 -2.988281 4.046875 -2.3125 C 4.796875 -1.644531 5.632812 -1.109375 6.5625 -0.703125 C 7.5 -0.304688 8.46875 -0.109375 9.46875 -0.109375 C 10.789062 -0.109375 11.847656 -0.28125 12.640625 -0.625 C 13.429688 -0.96875 14.007812 -1.429688 14.375 -2.015625 C 14.75 -2.597656 14.945312 -3.222656 14.96875 -3.890625 C 14.988281 -4.503906 14.804688 -5.070312 14.421875 -5.59375 C 14.046875 -6.113281 13.535156 -6.601562 12.890625 -7.0625 C 12.242188 -7.519531 11.535156 -7.960938 10.765625 -8.390625 C 9.992188 -8.816406 9.226562 -9.242188 8.46875 -9.671875 C 7.71875 -10.097656 7.046875 -10.53125 6.453125 -10.96875 C 5.085938 -11.988281 4.03125 -12.914062 3.28125 -13.75 C 2.539062 -14.582031 2.101562 -15.414062 1.96875 -16.25 C 1.832031 -17.082031 1.992188 -18.015625 2.453125 -19.046875 C 2.867188 -19.992188 3.46875 -20.8125 4.25 -21.5 C 5.039062 -22.1875 5.945312 -22.71875 6.96875 -23.09375 C 7.988281 -23.46875 9.039062 -23.65625 10.125 -23.65625 C 10.613281 -23.65625 11.09375 -23.613281 11.5625 -23.53125 C 12.039062 -23.445312 12.488281 -23.304688 12.90625 -23.109375 C 13.132812 -23.003906 13.421875 -22.878906 13.765625 -22.734375 C 14.117188 -22.585938 14.46875 -22.472656 14.8125 -22.390625 C 15.15625 -22.304688 15.445312 -22.285156 15.6875 -22.328125 C 15.9375 -22.378906 16.070312 -22.53125 16.09375 -22.78125 L 16.09375 -22.890625 L 16.328125 -22.890625 L 16.328125 -16.4375 L 16.09375 -16.4375 C 16.09375 -16.4375 16.078125 -16.59375 16.046875 -16.90625 C 16.015625 -17.226562 15.957031 -17.632812 15.875 -18.125 C 15.800781 -18.613281 15.664062 -19.140625 15.46875 -19.703125 C 15.28125 -20.265625 15.023438 -20.800781 14.703125 -21.3125 C 14.390625 -21.820312 13.988281 -22.226562 13.5 -22.53125 C 13.03125 -22.8125 12.507812 -23.023438 11.9375 -23.171875 C 11.363281 -23.328125 10.757812 -23.40625 10.125 -23.40625 C 9.070312 -23.40625 8.238281 -23.242188 7.625 -22.921875 C 7.007812 -22.609375 6.570312 -22.179688 6.3125 -21.640625 C 6.0625 -21.097656 5.9375 -20.476562 5.9375 -19.78125 C 5.9375 -18.863281 6.253906 -18.046875 6.890625 -17.328125 C 7.523438 -16.609375 8.492188 -15.847656 9.796875 -15.046875 C 10.921875 -14.359375 11.984375 -13.75 12.984375 -13.21875 C 13.984375 -12.695312 14.863281 -12.15625 15.625 -11.59375 C 16.382812 -11.03125 16.984375 -10.359375 17.421875 -9.578125 C 17.867188 -8.796875 18.09375 -7.804688 18.09375 -6.609375 C 18.09375 -5.828125 17.910156 -4.992188 17.546875 -4.109375 C 17.191406 -3.234375 16.738281 -2.523438 16.1875 -1.984375 C 15.613281 -1.398438 14.898438 -0.941406 14.046875 -0.609375 C 13.191406 -0.273438 12.269531 -0.0625 11.28125 0.03125 C 10.289062 0.132812 9.300781 0.128906 8.3125 0.015625 C 7.320312 -0.0976562 6.394531 -0.320312 5.53125 -0.65625 Z M 5.53125 -0.65625 "/></g></g></g></svg>