<svg
  width="100%"
  height="100%"
  viewBox="0 0 1440 400"
  xmlns="http://www.w3.org/2000/svg"
  preserveAspectRatio="none"
>
  <!-- Layer 1 -->
  <path
    fill="#DCEAD7"
    fill-opacity="0.4"
    d="M 0,400 L 0,75 C 122,81 244,87 352,88 C 460,89 553,84 662,82 C 771,80 897,81 1029,80 C 1161,79 1301,77 1440,75 L 1440,400 L 0,400 Z"
  >
    <animate
      attributeName="d"
      dur="20s"
      repeatCount="indefinite"
      values="
        M 0,400 L 0,75 C 122,81 244,87 352,88 C 460,89 553,84 662,82 C 771,80 897,81 1029,80 C 1161,79 1301,77 1440,75 L 1440,400 L 0,400 Z;
        M 0,400 L 0,75 C 143,79 285,82 388,80 C 491,77 555,69 672,69 C 790,68 961,75 1098,77 C 1235,79 1338,77 1440,75 L 1440,400 L 0,400 Z;
        M 0,400 L 0,75 C 97,58 193,41 297,48 C 401,55 511,85 655,85 C 799,85 976,54 1112,47 C 1248,40 1344,58 1440,75 L 1440,400 L 0,400 Z;
        M 0,400 L 0,75 C 83,92 166,110 301,103 C 436,96 624,66 756,58 C 888,50 964,63 1069,70 C 1174,76 1307,76 1440,75 L 1440,400 L 0,400 Z;
        M 0,400 L 0,75 C 122,81 244,87 352,88 C 460,89 553,84 662,82 C 771,80 897,81 1029,80 C 1161,79 1301,77 1440,75 L 1440,400 L 0,400 Z
      "
    />
  </path>

  <!-- Layer 2 -->
  <path
    fill="#A3C1A1"
    fill-opacity="0.53"
    d="M 0,400 L 0,175 C 137,186 275,197 382,196 C 489,195 566,180 682,181 C 798,181 952,197 1085,198 C 1218,199 1329,187 1440,175 L 1440,400 L 0,400 Z"
  >
    <animate
      attributeName="d"
      dur="20s"
      repeatCount="indefinite"
      values="
        M 0,400 L 0,175 C 137,186 275,197 382,196 C 489,195 566,180 682,181 C 798,181 952,197 1085,198 C 1218,199 1329,187 1440,175 L 1440,400 L 0,400 Z;
        M 0,400 L 0,175 C 164,181 328,186 426,188 C 524,190 555,187 663,191 C 771,195 956,205 1098,203 C 1240,201 1340,188 1440,175 L 1440,400 L 0,400 Z;
        M 0,400 L 0,175 C 139,184 278,193 380,189 C 482,185 546,170 652,163 C 758,157 907,159 1045,163 C 1183,167 1312,171 1440,175 L 1440,400 L 0,400 Z;
        M 0,400 L 0,175 C 146,167 292,158 421,154 C 550,150 663,149 772,153 C 881,157 987,165 1098,169 C 1209,173 1324,174 1440,175 L 1440,400 L 0,400 Z;
        M 0,400 L 0,175 C 137,186 275,197 382,196 C 489,195 566,180 682,181 C 798,181 952,197 1085,198 C 1218,199 1329,187 1440,175 L 1440,400 L 0,400 Z
      "
    />
  </path>

  <!-- Layer 3 -->
  <path
    fill="#86A788"
    fill-opacity="1"
    d="M 0,400 L 0,275 C 132,262 265,249 371,258 C 477,267 555,298 686,297 C 817,296 1000,262 1134,253 C 1268,244 1354,259 1440,275 L 1440,400 L 0,400 Z"
  >
    <animate
      attributeName="d"
      dur="20s"
      repeatCount="indefinite"
      values="
        M 0,400 L 0,275 C 132,262 265,249 371,258 C 477,267 555,298 686,297 C 817,296 1000,262 1134,253 C 1268,244 1354,259 1440,275 L 1440,400 L 0,400 Z;
        M 0,400 L 0,275 C 81,294 163,314 299,305 C 435,296 627,258 765,244 C 903,230 987,240 1091,249 C 1195,258 1317,267 1440,275 L 1440,400 L 0,400 Z;
        M 0,400 L 0,275 C 130,288 260,300 370,307 C 480,314 570,314 673,307 C 776,300 892,286 1022,279 C 1152,272 1296,274 1440,275 L 1440,400 L 0,400 Z;
        M 0,400 L 0,275 C 102,289 203,303 313,309 C 423,315 540,314 687,298 C 834,282 1011,252 1141,246 C 1271,240 1356,257 1440,275 L 1440,400 L 0,400 Z;
        M 0,400 L 0,275 C 132,262 265,249 371,258 C 477,267 555,298 686,297 C 817,296 1000,262 1134,253 C 1268,244 1354,259 1440,275 L 1440,400 L 0,400 Z
      "
    />
  </path>
</svg>